<svg xmlns="http://www.w3.org/2000/svg" version="1.1" xmlns:xlink="http://www.w3.org/1999/xlink" xmlns:svgjs="http://svgjs.com/svgjs" width="1920" height="1080" preserveAspectRatio="none" viewBox="0 0 1920 1080"><g mask="url(&quot;#SvgjsMask1022&quot;)" fill="none"><rect width="1920" height="1080" x="0" y="0" fill="rgba(255, 255, 255, 1)"></rect><path d="M1032.28 1216.69C1179.45 1210.34 1249.23 992.25 1564.34 963.46 1879.44 934.67 1927.04 557.5 2096.39 531.46" stroke="rgba(127, 202, 11, 1)" stroke-width="2"></path><path d="M354.65 1082.2C599.23 1050.8 674.85 536.27 1144.75 491.78 1614.66 447.29 1708.91 63.73 1934.86 48.98" stroke="rgba(127, 202, 11, 1)" stroke-width="2"></path><path d="M1106.47 1286.07C1342.46 1186.89 1309.99 525.9 1701.76 452.95 2093.53 380 2137.84 229.95 2297.05 226.15" stroke="rgba(127, 202, 11, 1)" stroke-width="2"></path><path d="M435.28 1124.53C750.56 1047.48 877.07 199.03 1342.89 196.29 1808.72 193.55 1991.08 687.04 2250.51 703.89" stroke="rgba(127, 202, 11, 1)" stroke-width="2"></path><path d="M495.25 1135.14C688.4 1061.56 544.89 522.92 995.35 476.77 1445.81 430.62 1730.16 125.64 1995.56 120.37" stroke="rgba(127, 202, 11, 1)" stroke-width="2"></path></g><defs><mask id="SvgjsMask1022"><rect width="1920" height="1080" fill="#ffffff"></rect></mask></defs></svg>